<svg width="188" height="55" fill="none" xmlns="http://www.w3.org/2000/svg"><path d="M130.5 0l1.756 4.744L137 6.5l-4.744 1.756L130.5 13l-1.756-4.744L124 6.5l4.744-1.756L130.5 0z" fill="#E21F4D"/><path d="M11.97 11.59l-9.9-.045v31.41l9.9.045c8.19 0 14.805-6.975 14.805-15.66 0-8.73-6.615-15.75-14.805-15.75zm-.225 25.515h-3.87v-19.44l3.87-.045c5.04 0 9.135 4.365 9.135 9.72s-4.095 9.765-9.135 9.765zm36.238-1.98c.135-.63.18-1.305.18-1.98 0-5.625-4.41-10.215-9.855-10.215-5.4 0-9.81 4.59-9.81 10.215 0 5.67 4.41 10.26 9.81 10.26 2.7 0 5.175-1.125 6.93-2.97a9.32 9.32 0 001.53-1.98v-.045l-5.31-1.98h-.045c-.81.81-1.89 1.35-3.105 1.35-1.755 0-3.285-1.125-4.005-2.655h13.68zm-13.68-3.96c.675-1.575 2.205-2.745 4.005-2.745 1.755 0 3.24 1.17 3.96 2.7l-7.965.045zm21.625 2.07c0-2.43 1.845-4.5 4.14-4.5 2.25 0 4.095 2.07 4.095 4.5V43h5.22v-9.765c0-5.445-4.185-9.855-9.315-9.855-1.485 0-3.06.495-4.14 1.485V23.29h-5.13V43h5.13v-9.765zm27.69 4.635h-4.455c-.765 0-1.35-.585-1.35-1.305v-8.1h5.805v-5.04h-5.805l-.045-5.58h-5.22v19.62c0 3.06 2.565 5.58 5.76 5.58l5.31-.045v-5.13zm2.995 5.175h5.265v-19.71h-5.265v19.71zm2.61-21.915c1.575 0 2.88-1.305 2.88-2.97 0-1.62-1.305-2.97-2.88-2.97s-2.835 1.35-2.835 2.97c0 1.665 1.26 2.97 2.835 2.97zm17.605 10.62c-.27-.09-4.995-1.665-5.13-1.8-1.755-1.08-.315-2.565 1.71-2.565.99 0 2.385.495 2.43 1.485h6.03c0-1.665-.945-3.24-2.61-4.365-3.105-2.25-8.64-2.25-11.745 0-2.88 1.89-3.51 5.31-1.125 7.785.9.945 2.115 1.665 3.555 2.115.045 0 4.455 1.53 4.5 1.53 2.43.765 1.44 2.79-1.035 2.835-1.485 0-2.475-.765-2.475-1.485h-5.985c0 1.665.9 3.24 2.565 4.365 3.105 2.25 8.64 2.25 11.745 0 2.88-1.89 3.51-5.31 1.125-7.785-.855-.9-2.115-1.62-3.555-2.115zm18.889 6.12h-4.455c-.765 0-1.35-.585-1.35-1.305v-8.1h5.805v-5.04h-5.805l-.045-5.58h-5.22v19.62c0 3.06 2.565 5.58 5.76 5.58l5.31-.045v-5.13z" fill="#3F3F3F"/><path d="M143.788 11.545h-8.415L126.958 43h5.985l2.115-7.83h9.135l2.16 7.83h5.985l-8.55-31.455zm-7.245 18.135l3.105-11.835 3.06 11.835h-6.165zm26.929-6.39c-1.485 0-2.97.495-4.185 1.53v-1.575h-5.13V43h5.13v-9.81c0-2.385 1.845-4.455 4.14-4.455 1.98 0 3.6 1.53 4.005 3.465.09.315.135.675.135.99V43h5.175v-9.945c0-.405.045-.81.135-1.17.54-1.8 2.115-3.24 3.96-3.24 2.295 0 4.14 2.07 4.14 4.5V43h5.22v-9.81c0-4.68-3.015-8.55-7.065-9.585-.72-.18-1.44-.27-2.205-.27a9.113 9.113 0 00-6.75 3.015c-.765-.81-1.62-1.485-2.565-1.98-1.26-.675-2.655-1.08-4.14-1.08z" fill="#E21F4D"/></svg>