<svg width="27" height="27" viewBox="0 0 27 27" fill="none" xmlns="http://www.w3.org/2000/svg">
<path d="M25.2497 1.75L17.1247 24.25C17.0699 24.3697 16.9818 24.4711 16.871 24.5422C16.7602 24.6133 16.6314 24.6511 16.4997 24.6511C16.3681 24.6511 16.2392 24.6133 16.1284 24.5422C16.0176 24.4711 15.9296 24.3697 15.8747 24.25L11.4997 15.5L2.74972 11.125C2.63004 11.0702 2.52863 10.9821 2.45753 10.8713C2.38643 10.7605 2.34863 10.6316 2.34863 10.5C2.34863 10.3684 2.38643 10.2395 2.45753 10.1287C2.52863 10.0179 2.63004 9.92984 2.74972 9.875L25.2497 1.75Z" stroke="#E21F4D" stroke-width="2.875" stroke-linecap="round" stroke-linejoin="round"/>
</svg>
