<svg width="188" height="55" viewBox="0 0 188 55" fill="none" xmlns="http://www.w3.org/2000/svg">
<path d="M130.5 0L132.256 4.74441L137 6.5L132.256 8.25559L130.5 13L128.744 8.25559L124 6.5L128.744 4.74441L130.5 0Z" fill="#E21F4D"/>
<path d="M11.97 11.59L2.07 11.545V42.955L11.97 43C20.16 43 26.775 36.025 26.775 27.34C26.775 18.61 20.16 11.59 11.97 11.59ZM11.745 37.105H7.875V17.665L11.745 17.62C16.785 17.62 20.88 21.985 20.88 27.34C20.88 32.695 16.785 37.105 11.745 37.105ZM47.9827 35.125C48.1177 34.495 48.1627 33.82 48.1627 33.145C48.1627 27.52 43.7527 22.93 38.3077 22.93C32.9077 22.93 28.4977 27.52 28.4977 33.145C28.4977 38.815 32.9077 43.405 38.3077 43.405C41.0077 43.405 43.4827 42.28 45.2377 40.435C45.8227 39.85 46.3627 39.175 46.7677 38.455V38.41L41.4577 36.43H41.4127C40.6027 37.24 39.5227 37.78 38.3077 37.78C36.5527 37.78 35.0227 36.655 34.3027 35.125H34.3477C34.3477 35.125 47.5777 35.125 47.9827 35.125ZM34.3027 31.165C34.9777 29.59 36.5077 28.42 38.3077 28.42C40.0627 28.42 41.5477 29.59 42.2677 31.12L34.3027 31.165ZM55.928 33.235C55.928 30.805 57.773 28.735 60.068 28.735C62.318 28.735 64.163 30.805 64.163 33.235V43H69.383V33.235C69.383 27.79 65.198 23.38 60.068 23.38C58.583 23.38 57.008 23.875 55.928 24.865C55.928 24.505 55.928 23.29 55.928 23.29H50.798V43H55.928V33.235ZM83.6177 37.87H79.1627C78.3977 37.87 77.8127 37.285 77.8127 36.565V28.465H83.6177V23.425H77.8127L77.7677 17.845H72.5477C72.5477 17.89 72.5477 36.655 72.5477 37.465C72.5477 40.525 75.1127 43.045 78.3077 43.045L83.6177 43V37.87ZM86.6134 43.045H91.8784V23.335H86.6134V43.045ZM89.2234 21.13C90.7984 21.13 92.1034 19.825 92.1034 18.16C92.1034 16.54 90.7984 15.19 89.2234 15.19C87.6484 15.19 86.3884 16.54 86.3884 18.16C86.3884 19.825 87.6484 21.13 89.2234 21.13ZM106.828 31.75C106.558 31.66 101.833 30.085 101.698 29.95C99.9432 28.87 101.383 27.385 103.408 27.385C104.398 27.385 105.793 27.88 105.838 28.87H111.868C111.868 27.205 110.923 25.63 109.258 24.505C106.153 22.255 100.618 22.255 97.5132 24.505C94.6332 26.395 94.0032 29.815 96.3882 32.29C97.2882 33.235 98.5032 33.955 99.9432 34.405C99.9882 34.405 104.398 35.935 104.443 35.935C106.873 36.7 105.883 38.725 103.408 38.77C101.923 38.77 100.933 38.005 100.933 37.285H94.9482C94.9482 38.95 95.8482 40.525 97.5132 41.65C100.618 43.9 106.153 43.9 109.258 41.65C112.138 39.76 112.768 36.34 110.383 33.865C109.528 32.965 108.268 32.245 106.828 31.75ZM125.717 37.87H121.262C120.497 37.87 119.912 37.285 119.912 36.565V28.465H125.717V23.425H119.912L119.867 17.845H114.647C114.647 17.89 114.647 36.655 114.647 37.465C114.647 40.525 117.212 43.045 120.407 43.045L125.717 43V37.87Z" fill="#3F3F3F"/>
<path d="M143.788 11.545H135.373L126.958 43H132.943L135.058 35.17H144.193L146.353 43H152.338L143.788 11.545ZM136.543 29.68L139.648 17.845L142.708 29.68H136.543ZM163.472 23.29C161.987 23.29 160.502 23.785 159.287 24.82C159.287 24.46 159.287 23.245 159.287 23.245H154.157V43H159.287V33.19C159.287 30.805 161.132 28.735 163.427 28.735C165.407 28.735 167.027 30.265 167.432 32.2C167.522 32.515 167.567 32.875 167.567 33.19V43C167.567 43 170.942 43 172.742 43C172.742 38.635 172.742 33.055 172.742 33.055C172.742 32.65 172.787 32.245 172.877 31.885C173.417 30.085 174.992 28.645 176.837 28.645C179.132 28.645 180.977 30.715 180.977 33.145V43H186.197V33.19C186.197 28.51 183.182 24.64 179.132 23.605C178.412 23.425 177.692 23.335 176.927 23.335C174.272 23.335 171.842 24.505 170.177 26.35C169.412 25.54 168.557 24.865 167.612 24.37C166.352 23.695 164.957 23.29 163.472 23.29Z" fill="#E21F4D"/>
</svg>
