<svg width="11" height="11" viewBox="0 0 11 11" fill="none" xmlns="http://www.w3.org/2000/svg">
<path d="M10.5955 9.69954L8.20671 7.31079C8.78192 6.54496 9.09239 5.61279 9.09125 4.655C9.09125 2.20883 7.10117 0.21875 4.655 0.21875C2.20883 0.21875 0.21875 2.20883 0.21875 4.655C0.21875 7.10117 2.20883 9.09125 4.655 9.09125C5.61261 9.09227 6.54457 8.78181 7.31025 8.20671L9.699 10.5955C9.81945 10.706 9.97793 10.7658 10.1414 10.7623C10.3048 10.7588 10.4606 10.6923 10.5762 10.5768C10.6919 10.4612 10.7584 10.3055 10.762 10.142C10.7656 9.97857 10.7059 9.82006 10.5955 9.69954ZM1.48625 4.655C1.48625 4.02828 1.67209 3.41563 2.02028 2.89454C2.36847 2.37344 2.86336 1.96729 3.44237 1.72746C4.02139 1.48762 4.65852 1.42487 5.27319 1.54714C5.88787 1.6694 6.45249 1.9712 6.89564 2.41436C7.3388 2.85751 7.6406 3.42213 7.76286 4.03681C7.88513 4.65148 7.82238 5.28861 7.58254 5.86763C7.34271 6.44664 6.93656 6.94153 6.41546 7.28972C5.89436 7.63791 5.28172 7.82375 4.655 7.82375C3.8149 7.82275 3.0095 7.48857 2.41546 6.89454C1.82143 6.3005 1.48725 5.4951 1.48625 4.655Z" fill="#8F8F8F"/>
</svg>
