<svg width="30" height="30" viewBox="0 0 30 30" fill="none" xmlns="http://www.w3.org/2000/svg">
<path d="M3.75 26.2487L5.8125 21.4987C4.23458 19.2588 3.52833 16.52 3.82631 13.7963C4.12428 11.0727 5.40598 8.55135 7.43088 6.70558C9.45579 4.85981 12.0847 3.81645 14.8242 3.7713C17.5638 3.72616 20.2256 4.68234 22.3102 6.4604C24.3948 8.23845 25.7589 10.7162 26.1465 13.4285C26.534 16.1409 25.9184 18.9014 24.4151 21.1921C22.9119 23.4828 20.6243 25.1462 17.9817 25.8701C15.3392 26.5939 12.5233 26.3285 10.0625 25.1237L3.75 26.2487" stroke="#E21F4D" stroke-width="2.875" stroke-linecap="round" stroke-linejoin="round"/>
<path d="M11.25 12.5C11.25 14.1576 11.9085 15.7473 13.0806 16.9194C14.2527 18.0915 15.8424 18.75 17.5 18.75H18.75C18.9158 18.75 19.0747 18.6842 19.1919 18.5669C19.3092 18.4497 19.375 18.2908 19.375 18.125C19.375 17.9592 19.3092 17.8003 19.1919 17.6831C19.0747 17.5658 18.9158 17.5 18.75 17.5H17.5C17.3342 17.5 17.1753 17.5658 17.0581 17.6831C16.9408 17.8003 16.875 17.9592 16.875 18.125C16.875 18.2908 16.9408 18.4497 17.0581 18.5669C17.1753 18.6842 17.3342 18.75 17.5 18.75M11.25 12.5C11.25 12.6658 11.3158 12.8247 11.4331 12.9419C11.5503 13.0592 11.7092 13.125 11.875 13.125C12.0408 13.125 12.1997 13.0592 12.3169 12.9419C12.4342 12.8247 12.5 12.6658 12.5 12.5V11.25C12.5 11.0842 12.4342 10.9253 12.3169 10.8081C12.1997 10.6908 12.0408 10.625 11.875 10.625C11.7092 10.625 11.5503 10.6908 11.4331 10.8081C11.3158 10.9253 11.25 11.0842 11.25 11.25V12.5Z" stroke="#E21F4D" stroke-width="2.875" stroke-linecap="round" stroke-linejoin="round"/>
</svg>
